# xmcd
#
# Track frame offsets:
#  150
#  26767
#  60192
#  80360
#  95392
#  114504
#  134222
#  160245
#  176242
#  195527
#  216905
#
# Disc length: 3243 seconds
#
# Revision: 1
# Processed by: cddbd v1.5.1PL0 Copyright (c) Steve Scherf et al.
# Submitted via: Collectorz.com_Music_Collector 6.9
#
DISCID=970ca90b
DTITLE=Ray Vanderby - 5th Dimension Blues
DYEAR=2005
DGENRE=Blues -  Blues Organ
TTITLE0=5th Dimension Blues
TTITLE1=Ramblin' On My Mind
TTITLE2=Lonely People
TTITLE3=Crossroad Blues
TTITLE4=My Sweet Heroine
TTITLE5=Baby Please Don't Go
TTITLE6=I Feel It Too
TTITLE7=Money That's What I Want
TTITLE8=Bringin' Home The Blues
TTITLE9=Where The Wind Blows
TTITLE10=It's Your Life
EXTD=
EXTT0=
EXTT1=
EXTT2=
EXTT3=
EXTT4=
EXTT5=
EXTT6=
EXTT7=
EXTT8=
EXTT9=
EXTT10=
PLAYORDER=
